<svg width="16" height="16" viewBox="0 0 16 16" fill="none" xmlns="http://www.w3.org/2000/svg">
<path d="M13.8849 9.57878C13.9696 9.6804 14.0106 9.81147 13.9989 9.94326C13.9872 10.0751 13.9237 10.1968 13.8224 10.2819C12.7374 11.1807 11.7686 11.5 10.8849 11.5C9.72364 11.5 8.70864 10.9494 7.76427 10.4375C6.17989 9.57816 4.81177 8.83566 2.82239 10.4838C2.77225 10.5282 2.71368 10.5621 2.65018 10.5835C2.58667 10.6049 2.51951 10.6133 2.4527 10.6082C2.38589 10.6031 2.32078 10.5846 2.26125 10.5539C2.20172 10.5231 2.14897 10.4807 2.10615 10.4292C2.06333 10.3776 2.0313 10.318 2.01197 10.2538C1.99265 10.1897 1.98641 10.1223 1.99364 10.0557C2.00087 9.98907 2.02141 9.92458 2.05405 9.86607C2.08669 9.80755 2.13076 9.75618 2.18364 9.71503C4.69427 7.63566 6.57864 8.65753 8.24177 9.56003C9.82614 10.4194 11.1943 11.1613 13.1836 9.51316C13.2855 9.42937 13.4164 9.38925 13.5478 9.40155C13.6791 9.41384 13.8003 9.47754 13.8849 9.57878ZM2.82239 6.48753C4.81177 4.83941 6.17989 5.58128 7.76427 6.44066C8.70864 6.95316 9.72364 7.50316 10.8849 7.50316C11.7686 7.50316 12.7374 7.18378 13.8224 6.28503C13.8753 6.24388 13.9193 6.19252 13.952 6.134C13.9846 6.07548 14.0052 6.011 14.0124 5.94438C14.0196 5.87777 14.0134 5.81038 13.9941 5.74622C13.9747 5.68206 13.9427 5.62244 13.8999 5.5709C13.8571 5.51937 13.8043 5.47696 13.7448 5.44621C13.6852 5.41546 13.6201 5.39699 13.5533 5.39189C13.4865 5.38679 13.4194 5.39518 13.3559 5.41655C13.2923 5.43792 13.2338 5.47183 13.1836 5.51628C11.1943 7.16441 9.82614 6.42191 8.24177 5.56253C6.57864 4.66066 4.69427 3.63816 2.18364 5.71753C2.08975 5.80424 2.03262 5.92361 2.024 6.05112C2.01537 6.17863 2.0559 6.30461 2.13726 6.40317C2.21862 6.50173 2.33464 6.56539 2.46147 6.58108C2.58831 6.59677 2.71634 6.5633 2.81927 6.48753H2.82239Z" fill="#5E616E"/>
</svg>
