<svg width="10" height="12" viewBox="0 0 10 12" fill="none" xmlns="http://www.w3.org/2000/svg">
<path d="M3.34701 7.62897e-05C3.25587 7.62898e-05 3.17048 0.0453331 3.11755 0.121567L0.0601949 4.52686C0.0211322 4.58332 -5.77046e-09 4.65098 -5.85632e-09 4.72019C-6.08446e-09 4.90407 0.144724 5.05302 0.323388 5.05302L1.92112 5.05302L1.92112 11.8635L3.62878 11.8635L3.62878 0.290071C3.62878 0.129915 3.50262 7.62895e-05 3.34701 7.62897e-05Z" fill="url(#paint0_linear_18_2)"/>
<path d="M6.04519 11.8635C6.13634 11.8635 6.22172 11.8183 6.27466 11.742L9.33201 7.33673C9.37107 7.28027 9.3922 7.21261 9.3922 7.1434C9.3922 6.95952 9.24748 6.81057 9.06882 6.81057L7.47109 6.81057L7.47109 7.62918e-05L5.76343 7.62939e-05L5.76343 11.5735C5.76343 11.7337 5.88958 11.8635 6.04519 11.8635Z" fill="url(#paint1_linear_18_2)"/>
<defs>
<linearGradient id="paint0_linear_18_2" x1="1.81439" y1="7.62916e-05" x2="1.81439" y2="11.8635" gradientUnits="userSpaceOnUse">
<stop stop-color="white"/>
<stop offset="0.524038" stop-color="white"/>
<stop offset="1" stop-color="white"/>
</linearGradient>
<linearGradient id="paint1_linear_18_2" x1="7.57782" y1="7.62916e-05" x2="7.57782" y2="11.8635" gradientUnits="userSpaceOnUse">
<stop stop-color="white"/>
<stop offset="0.524038" stop-color="white"/>
<stop offset="1" stop-color="white"/>
</linearGradient>
</defs>
</svg>
