<svg width="14" height="15" viewBox="0 0 14 15" fill="none" xmlns="http://www.w3.org/2000/svg">
<path d="M0.699219 9.08C0.699219 9.18675 0.747286 9.28675 0.828253 9.34875L5.50705 12.9295C5.56702 12.9752 5.63889 13 5.71239 13C5.90769 13 6.06589 12.8305 6.06589 12.6212L6.06589 10.75L13.2992 10.75L13.2992 8.75L1.00722 8.75C0.837119 8.75 0.699219 8.89775 0.699219 9.08Z" fill="white"/>
<path d="M13.2992 5.92C13.2992 5.81325 13.2512 5.71325 13.1702 5.65125L8.49139 2.0705C8.43142 2.02475 8.35955 2 8.28605 2C8.09075 2 7.93255 2.1695 7.93255 2.37875L7.93255 4.25L0.699219 4.25L0.699219 6.25L12.9912 6.25C13.1613 6.25 13.2992 6.10225 13.2992 5.92Z" fill="white"/>
</svg>
