<svg width="29" height="29" viewBox="0 0 29 29" fill="none" xmlns="http://www.w3.org/2000/svg">
<path d="M9.77918 6.77924C9.77877 7.25093 9.57929 7.70315 9.22463 8.03641C8.86997 8.36967 8.38919 8.55667 7.88804 8.55629C7.38689 8.5559 6.90643 8.36815 6.55235 8.03434C6.19827 7.70053 5.99959 7.24801 6 6.77632C6.00041 6.30482 6.19981 5.85279 6.55432 5.51967C6.72986 5.35472 6.93819 5.22393 7.16743 5.13477C7.39667 5.0456 7.64232 4.99981 7.89037 5C8.13841 5.00019 8.38398 5.04637 8.61306 5.13589C8.84215 5.2254 9.05025 5.35652 9.2255 5.52173C9.40075 5.68695 9.53971 5.88304 9.63444 6.0988C9.72918 6.31457 9.77938 6.54578 9.77918 6.77924ZM9.83352 9.87153H6.05745V21H9.83507L9.83352 9.87153ZM15.8019 9.87153H12.0445V21H15.7647V15.1603C15.7647 11.9072 20.269 11.6047 20.269 15.1603V21H24V13.9517C24 8.46714 17.3329 8.67174 15.7647 11.3651L15.8019 9.87153Z" fill="#2E3038"/>
</svg>
