<svg width="12" height="12" viewBox="0 0 12 12" fill="none" xmlns="http://www.w3.org/2000/svg">
<g clip-path="url(#clip0_1_375)">
<path d="M9.75 3.75H8.25V2.625C8.25 2.02826 8.01295 1.45597 7.59099 1.03401C7.16903 0.612053 6.59674 0.375 6 0.375C5.40326 0.375 4.83097 0.612053 4.40901 1.03401C3.98705 1.45597 3.75 2.02826 3.75 2.625V3.75H2.25C2.05109 3.75 1.86032 3.82902 1.71967 3.96967C1.57902 4.11032 1.5 4.30109 1.5 4.5V9.75C1.5 9.94891 1.57902 10.1397 1.71967 10.2803C1.86032 10.421 2.05109 10.5 2.25 10.5H9.75C9.94891 10.5 10.1397 10.421 10.2803 10.2803C10.421 10.1397 10.5 9.94891 10.5 9.75V4.5C10.5 4.30109 10.421 4.11032 10.2803 3.96967C10.1397 3.82902 9.94891 3.75 9.75 3.75ZM4.5 2.625C4.5 2.22718 4.65804 1.84564 4.93934 1.56434C5.22064 1.28304 5.60218 1.125 6 1.125C6.39782 1.125 6.77936 1.28304 7.06066 1.56434C7.34196 1.84564 7.5 2.22718 7.5 2.625V3.75H4.5V2.625ZM9.75 9.75H2.25V4.5H9.75V9.75ZM6.5625 7.125C6.5625 7.23625 6.52951 7.34501 6.4677 7.43751C6.40589 7.53001 6.31804 7.60211 6.21526 7.64468C6.11248 7.68726 5.99938 7.6984 5.89026 7.67669C5.78115 7.65499 5.68092 7.60141 5.60225 7.52275C5.52359 7.44408 5.47001 7.34385 5.44831 7.23474C5.4266 7.12562 5.43774 7.01252 5.48032 6.90974C5.52289 6.80696 5.59499 6.71911 5.68749 6.6573C5.77999 6.59549 5.88875 6.5625 6 6.5625C6.14918 6.5625 6.29226 6.62176 6.39775 6.72725C6.50324 6.83274 6.5625 6.97582 6.5625 7.125Z" fill="#5E616E"/>
</g>
<defs>
<clipPath id="clip0_1_375">
<rect width="12" height="12" fill="white"/>
</clipPath>
</defs>
</svg>
