<svg width="15" height="15" viewBox="0 0 15 15" fill="none" xmlns="http://www.w3.org/2000/svg">
<path d="M10.3125 4.6875C10.3125 4.56318 10.3619 4.44395 10.4498 4.35604C10.5377 4.26814 10.6569 4.21875 10.7812 4.21875H12.6562C12.7806 4.21875 12.8998 4.26814 12.9877 4.35604C13.0756 4.44395 13.125 4.56318 13.125 4.6875C13.125 4.81182 13.0756 4.93105 12.9877 5.01896C12.8998 5.10686 12.7806 5.15625 12.6562 5.15625H10.7812C10.6569 5.15625 10.5377 5.10686 10.4498 5.01896C10.3619 4.93105 10.3125 4.81182 10.3125 4.6875ZM2.34375 5.15625H8.4375V6.09375C8.4375 6.21807 8.48689 6.3373 8.57479 6.42521C8.6627 6.51311 8.78193 6.5625 8.90625 6.5625C9.03057 6.5625 9.1498 6.51311 9.23771 6.42521C9.32561 6.3373 9.375 6.21807 9.375 6.09375V3.28125C9.375 3.15693 9.32561 3.0377 9.23771 2.94979C9.1498 2.86189 9.03057 2.8125 8.90625 2.8125C8.78193 2.8125 8.6627 2.86189 8.57479 2.94979C8.48689 3.0377 8.4375 3.15693 8.4375 3.28125V4.21875H2.34375C2.21943 4.21875 2.1002 4.26814 2.01229 4.35604C1.92439 4.44395 1.875 4.56318 1.875 4.6875C1.875 4.81182 1.92439 4.93105 2.01229 5.01896C2.1002 5.10686 2.21943 5.15625 2.34375 5.15625ZM12.6562 9.84375H7.03125C6.90693 9.84375 6.7877 9.89314 6.69979 9.98104C6.61189 10.069 6.5625 10.1882 6.5625 10.3125C6.5625 10.4368 6.61189 10.556 6.69979 10.644C6.7877 10.7319 6.90693 10.7812 7.03125 10.7812H12.6562C12.7806 10.7812 12.8998 10.7319 12.9877 10.644C13.0756 10.556 13.125 10.4368 13.125 10.3125C13.125 10.1882 13.0756 10.069 12.9877 9.98104C12.8998 9.89314 12.7806 9.84375 12.6562 9.84375ZM5.15625 8.4375C5.03193 8.4375 4.9127 8.48689 4.82479 8.57479C4.73689 8.6627 4.6875 8.78193 4.6875 8.90625V9.84375H2.34375C2.21943 9.84375 2.1002 9.89314 2.01229 9.98104C1.92439 10.069 1.875 10.1882 1.875 10.3125C1.875 10.4368 1.92439 10.556 2.01229 10.644C2.1002 10.7319 2.21943 10.7812 2.34375 10.7812H4.6875V11.7188C4.6875 11.8431 4.73689 11.9623 4.82479 12.0502C4.9127 12.1381 5.03193 12.1875 5.15625 12.1875C5.28057 12.1875 5.3998 12.1381 5.48771 12.0502C5.57561 11.9623 5.625 11.8431 5.625 11.7188V8.90625C5.625 8.78193 5.57561 8.6627 5.48771 8.57479C5.3998 8.48689 5.28057 8.4375 5.15625 8.4375Z" fill="black"/>
</svg>
